<?xml version="1.0" encoding="UTF-8"?>
<svg width="15px" height="15px" viewBox="0 0 15 15" version="1.1" xmlns="http://www.w3.org/2000/svg" xmlns:xlink="http://www.w3.org/1999/xlink">
    <!-- Generator: Sketch 48.2 (47327) - http://www.bohemiancoding.com/sketch -->
    <title>Shape</title>
    <desc>Created with Sketch.</desc>
    <defs></defs>
    <g id="card-active-web" stroke="none" stroke-width="1" fill="none" fill-rule="evenodd" transform="translate(-18.000000, -11.000000)" opacity="0.4">
        <g id="time-until" transform="translate(18.000000, 10.000000)" fill="#000000" fill-rule="nonzero">
            <g id="iconmonstr-time-3" transform="translate(0.000000, 1.000000)">
                <path d="M7.5,1.23062016 C10.94625,1.23062016 13.75,3.99090116 13.75,7.38372093 C13.75,10.7765407 10.94625,13.5368217 7.5,13.5368217 C4.05375,13.5368217 1.25,10.7765407 1.25,7.38372093 C1.25,3.99090116 4.05375,1.23062016 7.5,1.23062016 Z M7.5,0 C3.358125,0 0,3.30606105 0,7.38372093 C0,11.4613808 3.358125,14.7674419 7.5,14.7674419 C11.641875,14.7674419 15,11.4613808 15,7.38372093 C15,3.30606105 11.641875,0 7.5,0 Z M11.155,7.66614826 C11.28125,7.68953004 11.28125,7.87104651 11.155625,7.8950436 C9.96375,8.11717054 7.3775,8.5786531 7.06375,8.5786531 C6.614375,8.5786531 6.250625,8.22054264 6.250625,7.77813469 C6.250625,7.46309593 6.731875,4.4265407 6.95375,3.19715116 C6.975,3.07901163 7.14875,3.08578004 7.168125,3.2057655 L7.78375,7.04406977 L11.155,7.66614826 Z" id="Shape"></path>
            </g>
        </g>
    </g>
</svg>