<?xml version="1.0" encoding="UTF-8"?>
<svg width="158px" height="12px" viewBox="0 0 158 12" version="1.1" xmlns="http://www.w3.org/2000/svg"
>
    <!-- Generator: Sketch 48.2 (47327) - http://www.bohemiancoding.com/sketch -->
    <title>logo_black</title>
    <desc>Created with Sketch.</desc>
    <defs></defs>
    <g id="Kund---beställ-3" stroke="none" stroke-width="1" fill="none" fill-rule="evenodd"
       transform="translate(-108.000000, -90.000000)">
        <g id="logo_black" transform="translate(109.000000, 91.000000)" fill="#000000" stroke="#000000">
            <g id="logo_white">
                <path d="M1.93023999,0.167310167 L5.50783998,6.98841699 L5.99039998,7.95366795 L6.04031998,7.95366795 L6.50623998,6.98841699 L10.08384,0.167310167 L11.99744,0.167310167 L11.99744,9.81981982 L10.44992,9.81981982 L10.44992,3.43629344 L10.4832,2.39382239 L10.43328,2.38095238 L9.95071997,3.35907336 L6.57279998,9.81981982 L5.37471998,9.81981982 L2.01343999,3.41055341 L1.53088,2.43243243 L1.4976,2.44530245 L1.51424,3.48777349 L1.51424,9.81981982 L0,9.81981982 L0,0.167310167 L1.93023999,0.167310167 Z M17.92128,0.167310167 L19.66848,0.167310167 L19.66848,9.81981982 L17.92128,9.81981982 L17.92128,0.167310167 Z M33.76256,9.81981982 L27.872,3.17889318 L27.13984,2.3037323 L27.10656,2.31660232 L27.1232,3.35907336 L27.1232,9.81981982 L25.59232,9.81981982 L25.59232,0.167310167 L27.13984,0.167310167 L33.46304,7.46460746 L33.49632,7.45173745 L33.46304,6.42213642 L33.46304,0.167310167 L34.97728,0.167310167 L34.97728,9.81981982 L33.76256,9.81981982 Z M50.35264,4.95495495 C50.35264,5.83012021 50.2417078,6.57657349 50.01984,7.19433719 C49.7979722,7.8121009 49.4679488,8.31617136 49.02976,8.70656371 C48.5915711,9.09695605 48.03691,9.3800935 47.36576,9.55598456 C46.69461,9.73187561 45.9097645,9.81981982 45.0112,9.81981982 L40.70144,9.81981982 L40.70144,0.167310167 L44.97792,0.167310167 C45.920858,0.167310167 46.7334366,0.257399356 47.41568,0.437580438 C48.0979234,0.617761519 48.6553578,0.90089897 49.088,1.28700129 C49.5206421,1.6731036 49.8395723,2.16859414 50.0448,2.77348777 C50.2500277,3.3783814 50.35264,4.10552986 50.35264,4.95495495 Z M48.57216,4.95495495 C48.57216,4.25997079 48.5028273,3.68511596 48.36416,3.23037323 C48.2254926,2.7756305 48.0119481,2.41312876 47.72352,2.14285714 C47.4350919,1.87258552 47.0634689,1.68168224 46.60864,1.57014157 C46.153811,1.4586009 45.6046965,1.4028314 44.96128,1.4028314 L42.39872,1.4028314 L42.39872,8.5971686 L44.97792,8.5971686 C45.5880564,8.5971686 46.1177577,8.54354408 46.56704,8.43629344 C47.0163222,8.32904279 47.3907185,8.14028449 47.69024,7.87001287 C47.9897615,7.59974125 48.2116259,7.22865959 48.35584,6.75675676 C48.500054,6.28485393 48.57216,5.68425933 48.57216,4.95495495 Z M63.46496,8.62290862 L63.41504,9.81981982 L55.46112,9.81981982 L55.46112,0.167310167 L63.13216,0.167310167 L63.18208,1.37709138 L57.1584,1.37709138 L57.1584,4.24710425 L62.3168,4.24710425 L62.3168,5.35392535 L57.1584,5.35392535 L57.1584,8.62290862 L63.46496,8.62290862 Z M76.56064,2.92149292 C76.56064,3.6679574 76.3526421,4.25997207 75.93664,4.6975547 C75.5206379,5.13513732 74.913284,5.40540489 74.11456,5.50836551 L77.376,9.81981982 L75.34592,9.81981982 L72.53376,5.75289575 L70.02112,5.75289575 L70.02112,9.81981982 L68.32384,9.81981982 L68.32384,0.167310167 L72.5504,0.167310167 C73.9259802,0.167310167 74.9382367,0.39253314 75.5872,0.842985843 C76.2361632,1.29343855 76.56064,1.98626731 76.56064,2.92149292 Z M74.7968,2.97297297 C74.7968,2.36378932 74.6193084,1.93479318 74.26432,1.68597169 C73.9093315,1.43715019 73.3380306,1.31274131 72.5504,1.31274131 L70.02112,1.31274131 L70.02112,4.71042471 L72.48384,4.71042471 C73.282564,4.71042471 73.8677315,4.57958089 74.23936,4.31788932 C74.6109885,4.05619775 74.7968,3.60789678 74.7968,2.97297297 Z M89.29024,0.167310167 L91.56992,7.51608752 L91.86944,8.53281853 L91.91936,8.53281853 L92.16896,7.51608752 L94.21568,0.167310167 L95.91296,0.167310167 L92.90112,9.81981982 L90.82112,9.81981982 L88.608,2.47104247 L88.34176,1.44144144 L88.29184,1.44144144 L88.00896,2.47104247 L85.81248,9.81981982 L83.73248,9.81981982 L80.704,0.167310167 L82.48448,0.167310167 L84.5312,7.55469755 L84.79744,8.57142857 L84.84736,8.57142857 L85.13024,7.55469755 L87.39328,0.167310167 L89.29024,0.167310167 Z M108.8256,8.62290862 L108.77568,9.81981982 L100.82176,9.81981982 L100.82176,0.167310167 L108.4928,0.167310167 L108.54272,1.37709138 L102.51904,1.37709138 L102.51904,4.24710425 L107.67744,4.24710425 L107.67744,5.35392535 L102.51904,5.35392535 L102.51904,8.62290862 L108.8256,8.62290862 Z M121.92128,2.92149292 C121.92128,3.6679574 121.713282,4.25997207 121.29728,4.6975547 C120.881278,5.13513732 120.273924,5.40540489 119.4752,5.50836551 L122.73664,9.81981982 L120.70656,9.81981982 L117.8944,5.75289575 L115.38176,5.75289575 L115.38176,9.81981982 L113.68448,9.81981982 L113.68448,0.167310167 L117.91104,0.167310167 C119.28662,0.167310167 120.298877,0.39253314 120.94784,0.842985843 C121.596803,1.29343855 121.92128,1.98626731 121.92128,2.92149292 Z M120.15744,2.97297297 C120.15744,2.36378932 119.979948,1.93479318 119.62496,1.68597169 C119.269972,1.43715019 118.698671,1.31274131 117.91104,1.31274131 L115.38176,1.31274131 L115.38176,4.71042471 L117.84448,4.71042471 C118.643204,4.71042471 119.228371,4.57958089 119.6,4.31788932 C119.971629,4.05619775 120.15744,3.60789678 120.15744,2.97297297 Z M131.38944,1.4028314 L131.38944,9.81981982 L129.65888,9.81981982 L129.65888,1.4028314 L125.94816,1.4028314 L125.99808,0.167310167 L135.06688,0.167310167 L135.10016,1.4028314 L131.38944,1.4028314 Z M139.6928,0.167310167 L141.44,0.167310167 L141.44,9.81981982 L139.6928,9.81981982 L139.6928,0.167310167 Z M156,9.44658945 C155.545171,9.61819048 154.99883,9.75332426 154.36096,9.85199485 C153.72309,9.95066544 153.06027,10 152.37248,10 C151.385168,10 150.536537,9.90133089 149.82656,9.7039897 C149.116583,9.50664852 148.534189,9.20635122 148.07936,8.8030888 C147.624531,8.39982638 147.288961,7.88503102 147.07264,7.25868726 C146.856319,6.6323435 146.74816,5.88589022 146.74816,5.01930502 C146.74816,3.26897452 147.202982,1.99485598 148.11264,1.1969112 C149.022298,0.398966409 150.45887,0 152.4224,0 C153.01035,0 153.59829,0.0428996139 154.18624,0.128700129 C154.77419,0.214500644 155.290024,0.330329601 155.73376,0.476190476 L155.53408,1.66023166 C155.101438,1.51437079 154.629976,1.40283179 154.11968,1.32561133 C153.609384,1.24839086 153.071363,1.20978121 152.5056,1.20978121 C151.806717,1.20978121 151.207683,1.26984067 150.70848,1.38996139 C150.209278,1.51008211 149.798828,1.71600026 149.47712,2.00772201 C149.155412,2.29944376 148.919681,2.68983024 148.76992,3.17889318 C148.620159,3.66795611 148.54528,4.27713063 148.54528,5.00643501 C148.54528,5.71857928 148.614613,6.31273893 148.75328,6.78893179 C148.891947,7.26512465 149.111039,7.65122117 149.41056,7.94723295 C149.710082,8.24324472 150.098344,8.45345283 150.57536,8.57786358 C151.052376,8.70227432 151.63477,8.76447876 152.32256,8.76447876 C153.143471,8.76447876 153.86453,8.67438958 154.48576,8.49420849 L154.48576,4.71042471 L156,4.71042471 L156,9.44658945 Z"
                      id="MINDERWERTIG" stroke-width="0.2"></path>
            </g>
        </g>
    </g>
</svg>