<?xml version="1.0" encoding="UTF-8"?>
<svg width="145px" height="182px" viewBox="0 0 145 182" version="1.1" xmlns="http://www.w3.org/2000/svg" xmlns:xlink="http://www.w3.org/1999/xlink">
    <!-- Generator: Sketch 48.2 (47327) - http://www.bohemiancoding.com/sketch -->
    <title>logotyp_sta_svartvit</title>
    <desc>Created with Sketch.</desc>
    <defs></defs>
    <g id="Färdtjänst---beställ-1" stroke="none" stroke-width="1" fill="none" fill-rule="evenodd" transform="translate(-221.000000, -155.000000)" opacity="0.149230072">
        <g id="logotyp_sta_svartvit" transform="translate(292.000000, 243.000000) rotate(6.000000) translate(-292.000000, -243.000000) translate(217.000000, 156.000000)" fill="#FFFFFF">
            <path d="M10.8380137,137.73284 L19.8308219,137.710189 L19.8308219,150.357621 C19.8308219,153.818059 22.1106164,155.48084 24.3565068,155.48084 C26.6465753,155.48084 28.7126712,153.784083 28.7126712,150.323645 L28.7126712,137.665917 L37.5493151,137.665917 L37.5493151,150.53574 C37.5493151,158.550036 32.1821918,162.16697 24.209589,162.16697 C16.5195205,162.16697 10.8380137,158.617988 10.8380137,150.613988 L10.8380137,137.73284 Z M46.8565068,148.739112 L46.8791096,154.599515 C48.8660959,155.70426 52.1558219,155.001053 52.1558219,151.730059 C52.1558219,148.181077 49.0684932,147.455219 46.8565068,148.739112 Z M46.8565068,143.727089 C53.7842466,139.240154 59.8027397,145.122178 59.8027397,151.931858 C59.8027397,157.479266 55.4013699,163.015349 46.8565068,161.062225 L46.8565068,169.590284 L39.165411,169.593373 L39.165411,142.588367 L46.8565068,142.611018 L46.8565068,143.727089 Z M68.694863,148.739112 L68.7174658,154.599515 C71.3332192,155.771183 74.0167808,155.079302 74.0167808,151.730059 C74.0167808,148.125479 70.8842466,147.455219 68.694863,148.739112 Z M68.694863,143.727089 C75.7910959,139.440923 81.6626712,145.021278 81.6626712,151.931858 C81.6626712,157.579136 77.25,163.217148 68.694863,161.062225 L68.694863,169.590284 L61.0263699,169.593373 L61.0263699,142.588367 L68.694863,142.611018 L68.694863,143.727089 Z M82.6366438,159.990426 L82.6171233,154.655112 C84.9863014,156.57529 89.2078767,158.014651 89.4996575,156.016225 C89.8479452,153.638911 82.6160959,153.784083 82.5729452,148.202698 C82.5256849,142.186828 91.5143836,141.059432 96.5671233,144.229527 L96.5732877,149.375396 C94.575,147.768213 90.5660959,146.595515 90.4541096,148.605266 C90.364726,150.168178 97.8452055,150.98258 97.5277397,156.016225 C97.0921233,162.93813 87.3523973,162.669408 82.6366438,159.990426 Z M139.396233,157.278497 C139.363356,156.57529 139.261644,155.268746 139.295548,154.051775 C133.737329,155.167846 137.027055,159.577562 139.396233,157.278497 Z M140.979452,159.879231 C137.083562,162.26787 130.335616,162.055775 129.392466,158.226746 C128.022945,152.723609 136.454795,151.97613 139.295548,150.323645 C139.553425,145.680213 131.396918,150.279373 129.533219,152.132627 L129.522945,145.435172 C134.227397,140.858663 147.054452,139.586095 147.054452,148.939882 L147.054452,154.397716 C147.054452,155.748533 148.109589,156.373491 149.321918,156.117124 L147.558904,161.29697 L145.875,161.29697 C143.910616,161.29697 142.361301,161.463763 140.979452,159.879231 Z M108.317466,157.278497 C108.273288,156.57529 108.171575,155.268746 108.216781,154.051775 C102.648288,155.167846 105.926712,159.577562 108.317466,157.278497 Z M109.889384,159.879231 C105.993493,162.26787 99.2568493,162.055775 98.3023973,158.226746 C96.9441781,152.723609 105.364726,151.97613 108.216781,150.323645 C108.475685,145.680213 100.357192,150.279373 98.4934932,152.132627 L98.4657534,145.435172 C103.170205,140.858663 115.964384,139.586095 115.964384,148.939882 L115.964384,154.397716 C115.964384,155.748533 117.019521,156.373491 118.231849,156.117124 L116.468836,161.29697 L114.77363,161.29697 C112.820548,161.29697 111.271233,161.463763 109.889384,159.879231 Z M119.894178,161.251669 L127.933562,161.251669 L127.933562,136.828864 L119.894178,136.828864 L119.894178,161.251669 Z M87.1428082,162.36774 C90.6791096,162.346118 92.925,164.623562 92.925,167.893527 C92.925,171.164521 90.6452055,173.486237 87.1428082,173.463586 C83.6393836,173.45226 81.3369863,171.197467 81.359589,167.893527 C81.3821918,164.589586 83.6167808,162.390391 87.1428082,162.36774 Z M87.0976027,165.761254 C88.1640411,165.750959 88.8267123,166.632284 88.8493151,167.916178 C88.859589,169.210367 88.1753425,170.070071 87.0976027,170.070071 C86.030137,170.070071 85.3797945,169.233018 85.3797945,167.916178 C85.3797945,166.598308 86.030137,165.77258 87.0976027,165.761254 Z M133.962329,173.344154 L133.962329,162.49129 L137.454452,162.49129 L142.035616,167.045148 L142.035616,162.502615 L146.009589,162.49129 L146.009589,173.344154 L142.439384,173.344154 L138.00411,168.361988 L138.00411,173.341065 L133.962329,173.344154 Z M121.438356,162.505704 L125.619863,162.507763 L125.619863,168.340367 C125.619863,171.086272 129.14589,171.097598 129.14589,168.295065 L129.14589,162.505704 L133.265753,162.507763 L133.265753,168.596734 C133.265753,175.003846 121.438356,174.970899 121.438356,168.563787 L121.438356,162.505704 Z M107.476027,173.355479 L107.476027,162.512911 L110.934247,162.512911 L113.932192,165.962024 L116.930137,162.512911 L120.690411,162.512911 L120.690411,173.355479 L116.64863,173.355479 L116.64863,168.686308 L113.965068,171.398237 L111.439726,168.663657 L111.439726,173.363716 L107.476027,173.355479 Z M93.4520548,173.355479 L93.4520548,162.512911 L96.9215753,162.512911 L99.9082192,165.962024 L102.906164,162.512911 L106.667466,162.512911 L106.667466,173.355479 L102.625685,173.355479 L102.625685,168.686308 L99.9421233,171.398237 L97.4157534,168.663657 L97.4157534,173.363716 L93.4520548,173.355479 Z M70.5359589,173.355479 L70.5585616,162.546888 L74.4544521,162.546888 L74.4770548,167.112071 L78.6205479,162.546888 L82.4599315,162.546888 L78.4520548,167.580533 L82.5390411,173.355479 L77.834589,173.355479 L74.4996575,168.686308 L74.4328767,173.355479 L70.5359589,173.355479 Z" id="Fill-1"></path>
            <path d="M114.585616,117.882426 L112.683904,119.211621 L122.163699,131.086864 C123.242466,129.645444 127.897603,128.931941 129.551712,131.621219 C131.791438,129.812237 136.423973,129.668095 140.313699,132.06497 L147.727397,119.547266 L143.638356,87.6043669 L130.225685,87.017503 L129.949315,78.3947219 C150.500342,77.8150651 153.769521,44.6366627 124.016096,43.7357751 L104.896233,43.2168639 C98.2726027,43.1437633 97.934589,32.7830414 105.091438,32.6584615 L132.077055,32.1858817 C131.996918,22.1062367 135.865068,10.6623905 138.659589,6.34636686 C126.123288,14.4656805 115.885274,16.8893254 99.0205479,19.1122012 L99.3472603,21.5399645 C78.8609589,31.3148521 87.5907534,54.4856805 102.069863,54.7698462 L121.37774,55.2218343 C140.551027,55.170355 132.209589,70.5492781 125.426712,64.9802485 L121.076712,61.4528876 L81.3462329,59.8724734 L79.0243151,31.6288757 C83.5489726,28.8942959 83.4143836,21.1229822 76.1722603,19.9214556 C77.4688356,14.7168994 78.9143836,9.00269822 80.2099315,3.70239053 C77.3886986,2.89931361 72.3503425,3.27099408 69.5208904,5.59579882 C65.9085616,-0.787633136 55.065411,-0.53435503 51.0811644,6.10853254 C48.3133562,4.7340355 43.8174658,3.6756213 39.9606164,4.94407101 L45.444863,21.0601775 C37.3849315,23.634142 40.8071918,31.8234675 44.2592466,32.6790533 L42.1787671,56.291574 C36.840411,55.752071 31.5832192,52.6849349 28.7835616,47.6451124 C26.1143836,42.8873964 27.6226027,38.9430533 27.2650685,34.7145444 C27.1109589,33.042497 26.1328767,31.2263077 25.4044521,31.0502485 L19.1126712,33.7518817 L15.9965753,32.3207574 L15.7489726,28.9117988 L8.84178082,30.6435621 L0.314383562,48.0795976 L8.54794521,50.0213964 L10.5565068,63.9866982 L17.4339041,62.3177396 L43.0130137,84.2448284 L33.5619863,110.135822 L30.3297945,111.075834 L24.664726,108.109598 L15.0328767,112.766414 L19.3469178,128.681751 C22.65,128.181373 26.0116438,129.260379 28.4866438,131.998047 L38.9681507,123.629574 L47.6989726,125.152331 C46.6787671,120.935148 47.3876712,116.309219 50.9712329,113.844391 L51.9380137,109.624118 L64.4424658,87.0308876 C70.8133562,83.4108639 78.0626712,81.419645 85.2226027,79.6827337 L85.4825342,81.954 C90.2465753,80.2273846 95.7513699,79.403716 100.942808,78.7756686 C101.312671,80.0327929 101.718493,81.6070296 102.212671,82.8301775 L75.4890411,100.205467 L80.2910959,109.729136 L87.9277397,106.434462 C88.709589,106.074107 89.3753425,106.188391 88.5123288,107.372414 C86.3589041,110.507503 84.1099315,113.548899 80.9291096,115.627633 L78.2486301,115.643077 C74.9650685,111.749183 70.6633562,109.232876 65.8510274,108.116805 L63.3195205,107.623633 L65.0270548,118.749337 L62.0599315,127.650107 L70.6078767,131.387503 C76.6839041,128.943266 84.6359589,131.110544 88.7537671,135.747799 L90.7160959,125.316036 L110.797603,112.260888 L109.145548,102.492178 C106.371575,102.541598 106.628425,97.385432 109.559589,97.3020355 L112.996233,97.2423195 C117.512671,101.272118 121.683904,103.569124 124.736301,105.001278 C128.804795,106.857621 130.12089,111.796544 128.221233,116.759148 C123.905137,115.191089 118.486644,115.539089 114.585616,117.882426 Z M71.6280822,127.319609 L67.1065068,125.473562 L69.2023973,118.959373 L68.234589,112.894083 C71.2068493,113.47168 74.9691781,117.112296 76.3736301,119.373266 L82.8708904,119.260012 C87.0863014,115.910769 90.6174658,112.448272 92.7955479,107.623633 C94.3160959,104.214675 91.4383562,100.84587 87.4818493,102.552923 L82.2780822,104.802568 L80.5715753,101.66645 L103.886301,86.6653846 C105.440753,89.3371598 107.385616,91.7319763 109.439384,94.1432663 L108.686301,94.2101893 C103.534932,94.3368284 100.116781,101.161953 105.242466,104.778888 L106.114726,110.521917 L86.9270548,123.273337 L85.7650685,128.728083 C81.6523973,126.62258 76.1989726,125.872012 71.6280822,127.319609 Z M63.9729452,46.589787 C66.2527397,41.4037633 70.0756849,38.2419053 75.2681507,36.3330533 L74.6856164,29.6685444 L75.814726,29.5758817 C78.8609589,29.2536213 78.8157534,23.532213 75.4202055,23.447787 L47.4297945,24.5669467 C43.9294521,24.6276923 44.2520548,30.7938817 47.7318493,30.5900237 L48.540411,30.5756095 L48.1058219,36.5750059 C48.1972603,36.6810533 48.2342466,36.7345917 48.3082192,36.8591716 C53.0712329,38.1440947 57.3626712,42.3149467 59.6486301,46.7555503 L63.9729452,46.589787 Z M129.785959,127.310343 C128.061986,125.252201 125.22637,125.337657 123.659589,126.121172 L119.284932,120.314308 C122.835616,118.974817 127.104452,119.744947 130.243151,121.65174 C135.505479,112.436947 131.713356,105.000249 127.407534,102.123586 C123.720205,99.6515503 106.669521,91.8709704 104.743151,75.0444497 C98.4226027,75.0650414 91.9191781,75.8619408 85.4743151,76.9646272 L85.3068493,75.5818935 C76.7239726,77.6575385 68.0188356,79.9154201 60.7089041,84.9377396 L48.0010274,107.867645 L47.0486301,111.93245 C44.7914384,114.29329 43.3849315,117.089645 43.2791096,120.276213 L37.7486301,119.256923 L28.2934932,126.854237 C26.4482877,126.076899 24.6205479,125.28103 22.5184932,125.173953 L19.9407534,115.321846 L24.8537671,112.843633 L29.6229452,115.566888 L36.840411,113.461385 L48.1006849,82.6572071 L18.8136986,57.8338935 L14.0393836,58.9787929 L12.2660959,46.8286509 L6.15616438,45.4963669 L11.8325342,34.3119763 L18.809589,38.0051006 L23.2294521,36.1466982 C23.7688356,40.2578343 22.4753425,44.3648521 24.6513699,48.6808757 C28.4270548,56.1906746 35.9517123,60.3594675 45.9955479,60.7589467 L47.7863014,40.8992663 C51.6585616,41.6045325 56.0270548,47.0881065 56.7955479,50.9799408 L66.6821918,50.5722249 C67.6643836,46.1655976 71.1246575,41.7507337 75.5363014,40.3597633 L77.2859589,63.5048521 L119.654795,65.2469112 L122.967123,67.7796923 C135.486986,77.3311598 148.104452,52.2978107 122.149315,51.779929 L102.964726,51.287787 C89.7606164,50.9428757 85.2791096,29.7169349 103.083904,24.1509941 L102.826027,22.6982485 C112.441438,21.1806391 122.305479,19.4962367 130.815411,15.2986154 C129.678082,19.1152899 128.628082,24.7656568 128.153425,28.4443669 L104.907534,28.8510533 L104.576712,28.3712663 C91.5811644,31.7472781 94.055137,46.9635266 103.984932,47.0232426 L123.118151,47.6059882 C152.077397,48.4852544 143.152397,77.2518817 127.77637,74.8395621 L126.120205,74.5801065 L126.483904,90.2998225 L140.302397,90.9402249 L143.890068,118.570189 L138.90411,127.185763 C136.269863,126.404308 132.380137,125.788615 129.785959,127.310343 Z M57.6513699,39.2869349 L57.359589,32.8499645 L57.75,32.6090414 L58.5441781,36.9497751 L64.3407534,36.7768047 L64.9623288,32.2672189 L65.2921233,32.6038935 L65.5489726,39.1129349 C65.5561644,39.5443314 64.9715753,39.9685207 64.4866438,39.9767574 L58.7075342,40.1322249 C58.2585616,40.1404615 57.6585616,39.7008284 57.6513699,39.2869349 Z M49.9510274,28.0850414 L53.0291096,26.4840355 L58.1321918,30.8031479 L55.7886986,33.3637278 L49.9510274,28.0850414 Z M63.9575342,30.2512899 L68.0804795,25.7169941 L71.8160959,26.7671716 L66.5280822,32.4556331 L63.9575342,30.2512899 Z M49.0469178,18.456355 L72.6431507,17.5585562 L72.0400685,20.0336805 L49.7876712,20.8007219 L49.0469178,18.456355 Z M47.7287671,14.8991361 L45.7417808,9.08609467 C48.659589,8.60218935 51.4202055,10.3720473 53.2921233,12.6783195 C53.239726,2.49468639 66.9339041,2.12918343 67.6777397,11.8875976 C69.2506849,9.39394083 72.080137,7.94119527 74.9455479,8.53835503 L73.6386986,13.9241183 L47.7287671,14.8991361 Z" id="Fill-2"></path>
        </g>
    </g>
</svg>