<?xml version="1.0" encoding="UTF-8"?>
<svg width="202px" height="118px" viewBox="0 0 202 118" version="1.1" xmlns="http://www.w3.org/2000/svg"
>
    <!-- Generator: Sketch 48.2 (47327) - http://www.bohemiancoding.com/sketch -->
    <title>Group 3</title>
    <desc>Created with Sketch.</desc>
    <defs></defs>
    <g id="logo-black" stroke="none" stroke-width="1" fill="none" fill-rule="evenodd"
       transform="translate(-90.000000, -137.000000)">
        <g id="Group-3" transform="translate(91.000000, 137.000000)" fill="#000000">
            <g id="Group-2" transform="translate(0.000000, 105.000000)" stroke="#000000" stroke-width="0.2">
                <g id="logo_white">
                    <path d="M2.47466666,0.214500215 L7.06133331,8.95950896 L7.67999998,10.1970102 L7.74399998,10.1970102 L8.34133331,8.95950896 L12.928,0.214500215 L15.3813333,0.214500215 L15.3813333,12.5895126 L13.3973333,12.5895126 L13.3973333,4.40550441 L13.44,3.06900307 L13.376,3.05250305 L12.7573333,4.30650431 L8.42666664,12.5895126 L6.89066665,12.5895126 L2.58133333,4.37250437 L1.96266666,3.11850312 L1.91999999,3.13500314 L1.94133333,4.47150447 L1.94133333,12.5895126 L0,12.5895126 L0,0.214500215 L2.47466666,0.214500215 Z M22.976,0.214500215 L25.216,0.214500215 L25.216,12.5895126 L22.976,12.5895126 L22.976,0.214500215 Z M43.2853333,12.5895126 L35.7333333,4.07550408 L34.7946667,2.95350295 L34.752,2.97000297 L34.7733333,4.30650431 L34.7733333,12.5895126 L32.8106667,12.5895126 L32.8106667,0.214500215 L34.7946667,0.214500215 L42.9013333,9.57000957 L42.944,9.55350955 L42.9013333,8.23350823 L42.9013333,0.214500215 L44.8426666,0.214500215 L44.8426666,12.5895126 L43.2853333,12.5895126 Z M64.5546666,6.35250635 C64.5546666,7.47451308 64.4124458,8.43150447 64.128,9.22350922 C63.8435541,10.015514 63.4204472,10.6617582 62.8586666,11.1622612 C62.2968861,11.6627642 61.5857821,12.0257609 60.7253333,12.2512623 C59.8648846,12.4767636 58.8586724,12.5895126 57.7066667,12.5895126 L52.1813333,12.5895126 L52.1813333,0.214500215 L57.664,0.214500215 C58.8728949,0.214500215 59.9146623,0.329999175 60.7893333,0.561000561 C61.6640044,0.792001947 62.3786639,1.15499868 62.9333333,1.65000165 C63.4880027,2.14500462 63.8968875,2.7802489 64.16,3.55575356 C64.4231124,4.33125821 64.5546666,5.26349982 64.5546666,6.35250635 Z M62.272,6.35250635 C62.272,5.46150101 62.183112,4.72450764 62.0053333,4.14150414 C61.8275546,3.55850064 61.5537796,3.09375483 61.184,2.74725275 C60.8142204,2.40075067 60.3377807,2.15600287 59.7546667,2.01300201 C59.1715526,1.87000116 58.4675597,1.7985018 57.6426667,1.7985018 L54.3573333,1.7985018 L54.3573333,11.022011 L57.664,11.022011 C58.4462261,11.022011 59.1253304,10.9532616 59.7013333,10.8157608 C60.2773362,10.67826 60.7573314,10.4362622 61.1413333,10.0897601 C61.5253352,9.74325801 61.8097768,9.26751229 61.9946666,8.66250866 C62.1795565,8.05750503 62.272,7.28751196 62.272,6.35250635 Z M81.3653333,11.0550111 L81.3013333,12.5895126 L71.104,12.5895126 L71.104,0.214500215 L80.9386666,0.214500215 L81.0026666,1.76550177 L73.28,1.76550177 L73.28,5.44500545 L79.8933333,5.44500545 L79.8933333,6.86400686 L73.28,6.86400686 L73.28,11.0550111 L81.3653333,11.0550111 Z M98.1546666,3.74550375 C98.1546666,4.70250949 97.8880026,5.46150266 97.3546666,6.02250602 C96.8213306,6.58350939 96.0426718,6.93000627 95.0186667,7.06200706 L99.2,12.5895126 L96.5973333,12.5895126 L92.992,7.37550738 L89.7706667,7.37550738 L89.7706667,12.5895126 L87.5946667,12.5895126 L87.5946667,0.214500215 L93.0133333,0.214500215 C94.7768977,0.214500215 96.0746625,0.503247616 96.9066666,1.08075108 C97.7386708,1.65825455 98.1546666,2.54649655 98.1546666,3.74550375 Z M95.8933333,3.81150381 C95.8933333,3.03049913 95.66578,2.48050408 95.2106667,2.16150216 C94.7555533,1.84250025 94.0231162,1.68300168 93.0133333,1.68300168 L89.7706667,1.68300168 L89.7706667,6.03900604 L92.928,6.03900604 C93.9520051,6.03900604 94.7022198,5.87125755 95.1786667,5.53575554 C95.6551135,5.20025352 95.8933333,4.6255087 95.8933333,3.81150381 Z M114.474667,0.214500215 L117.397333,9.63600964 L117.781333,10.9395109 L117.845333,10.9395109 L118.165333,9.63600964 L120.789333,0.214500215 L122.965333,0.214500215 L119.104,12.5895126 L116.437333,12.5895126 L113.6,3.16800317 L113.258667,1.84800185 L113.194667,1.84800185 L112.832,3.16800317 L110.016,12.5895126 L107.349333,12.5895126 L103.466667,0.214500215 L105.749333,0.214500215 L108.373333,9.68550969 L108.714667,10.989011 L108.778667,10.989011 L109.141333,9.68550969 L112.042667,0.214500215 L114.474667,0.214500215 Z M139.52,11.0550111 L139.456,12.5895126 L129.258667,12.5895126 L129.258667,0.214500215 L139.093333,0.214500215 L139.157333,1.76550177 L131.434667,1.76550177 L131.434667,5.44500545 L138.048,5.44500545 L138.048,6.86400686 L131.434667,6.86400686 L131.434667,11.0550111 L139.52,11.0550111 Z M156.309333,3.74550375 C156.309333,4.70250949 156.042669,5.46150266 155.509333,6.02250602 C154.975997,6.58350939 154.197338,6.93000627 153.173333,7.06200706 L157.354667,12.5895126 L154.752,12.5895126 L151.146667,7.37550738 L147.925333,7.37550738 L147.925333,12.5895126 L145.749333,12.5895126 L145.749333,0.214500215 L151.168,0.214500215 C152.931564,0.214500215 154.229329,0.503247616 155.061333,1.08075108 C155.893337,1.65825455 156.309333,2.54649655 156.309333,3.74550375 Z M154.048,3.81150381 C154.048,3.03049913 153.820447,2.48050408 153.365333,2.16150216 C152.91022,1.84250025 152.177783,1.68300168 151.168,1.68300168 L147.925333,1.68300168 L147.925333,6.03900604 L151.082667,6.03900604 C152.106672,6.03900604 152.856886,5.87125755 153.333333,5.53575554 C153.80978,5.20025352 154.048,4.6255087 154.048,3.81150381 Z M168.448,1.7985018 L168.448,12.5895126 L166.229333,12.5895126 L166.229333,1.7985018 L161.472,1.7985018 L161.536,0.214500215 L173.162667,0.214500215 L173.205333,1.7985018 L168.448,1.7985018 Z M179.093333,0.214500215 L181.333333,0.214500215 L181.333333,12.5895126 L179.093333,12.5895126 L179.093333,0.214500215 Z M200,12.1110121 C199.416886,12.3310134 198.716449,12.5042619 197.898667,12.6307626 C197.080885,12.7572634 196.231116,12.8205128 195.349333,12.8205128 C194.083549,12.8205128 192.99556,12.694014 192.085333,12.4410124 C191.175107,12.1880109 190.428447,11.8030144 189.845333,11.2860113 C189.262219,10.7690082 188.832001,10.1090141 188.554667,9.30600931 C188.277332,8.50300449 188.138667,7.5460131 188.138667,6.43500644 C188.138667,4.19099297 188.721772,2.55750767 189.888,1.53450153 C191.054228,0.511495396 192.895987,0 195.413333,0 C196.167115,0 196.920885,0.054999505 197.674667,0.165000165 C198.428448,0.275000825 199.089775,0.423499488 199.658667,0.610500611 L199.402667,2.12850213 C198.847997,1.94150101 198.243559,1.79850229 197.589333,1.6995017 C196.935108,1.60050111 196.245337,1.55100155 195.52,1.55100155 C194.623996,1.55100155 193.856003,1.62800086 193.216,1.78200178 C192.575997,1.93600271 192.04978,2.20000033 191.637333,2.57400257 C191.224887,2.94800482 190.922668,3.44850031 190.730667,4.07550408 C190.538666,4.70250784 190.442667,5.48350081 190.442667,6.41850642 C190.442667,7.3315119 190.531555,8.09325504 190.709333,8.7037587 C190.887112,9.31426237 191.167998,9.80925791 191.552,10.1887602 C191.936002,10.5682625 192.433775,10.83776 193.045333,10.997261 C193.656892,11.156762 194.403551,11.2365112 195.285333,11.2365112 C196.337783,11.2365112 197.262218,11.1210123 198.058667,10.8900109 L198.058667,6.03900604 L200,6.03900604 L200,12.1110121 Z"
                          id="MINDERWERTIG"></path>
                </g>
            </g>
            <g id="Group" transform="translate(55.000000, 0.000000)">
                <rect id="Rectangle-18" opacity="0.195991848" x="60" y="0" width="11" height="75" rx="5.5"></rect>
                <path d="M6.5,13 L11,13 L11,69.5 C11,72.5375661 8.53756612,75 5.5,75 L5.5,75 C2.46243388,75 3.71994563e-16,72.5375661 0,69.5 L0,19.5 C-4.39629938e-16,15.9101491 2.91014913,13 6.5,13 Z"
                      id="Rectangle-18"></path>
                <rect id="Rectangle-18" opacity="0.196908967" x="20" y="13" width="11" height="70" rx="5.5"></rect>
                <rect id="Rectangle-18" x="20" y="0" width="11" height="31" rx="5.5"></rect>
                <path d="M40,13 L45,13 C48.3137085,13 51,15.6862915 51,19 L51,75 L46,75 C42.6862915,75 40,72.3137085 40,69 L40,13 Z"
                      id="Rectangle-18"></path>
                <rect id="Rectangle-18" x="60" y="52" width="11" height="31" rx="5.5"></rect>
                <path d="M85.5,13 L85.5,13 C88.5375661,13 91,15.4624339 91,18.5 L91,68.5 C91,72.0898509 88.0898509,75 84.5,75 L80,75 L80,18.5 C80,15.4624339 82.4624339,13 85.5,13 Z"
                      id="Rectangle-18"></path>
            </g>
        </g>
    </g>
</svg>