<?xml version="1.0" encoding="UTF-8"?>
<svg width="178px" height="104px" viewBox="0 0 178 104" version="1.1" xmlns="http://www.w3.org/2000/svg" xmlns:xlink="http://www.w3.org/1999/xlink">
    <!-- Generator: Sketch 48.2 (47327) - http://www.bohemiancoding.com/sketch -->
    <title>Group 3</title>
    <desc>Created with Sketch.</desc>
    <defs></defs>
    <g id="Kund---logga-in" stroke="none" stroke-width="1" fill="none" fill-rule="evenodd" transform="translate(-99.000000, -180.000000)">
        <g id="Group-3" transform="translate(100.000000, 180.000000)" fill="#FFFFFF">
            <g id="Group-2" transform="translate(0.000000, 93.000000)" stroke="#FFFFFF" stroke-width="0.2">
                <g id="logo_white">
                    <path d="M2.17770666,0.181500182 L6.21397331,7.58112297 L6.75839998,8.6282394 L6.81471998,8.6282394 L7.34037331,7.58112297 L11.37664,0.181500182 L13.5355733,0.181500182 L13.5355733,10.6526645 L11.7896533,10.6526645 L11.7896533,3.7277345 L11.8272,2.59684875 L11.77088,2.5828872 L11.2264533,3.64396518 L7.41546664,10.6526645 L6.06378665,10.6526645 L2.27157333,3.69981139 L1.72714666,2.63873341 L1.68959999,2.65269496 L1.70837333,3.78358071 L1.70837333,10.6526645 L0,10.6526645 L0,0.181500182 L2.17770666,0.181500182 Z M20.21888,0.181500182 L22.19008,0.181500182 L22.19008,10.6526645 L20.21888,10.6526645 L20.21888,0.181500182 Z M38.0910933,10.6526645 L31.4453333,3.44850345 L30.6193067,2.49911788 L30.58176,2.51307944 L30.6005333,3.64396518 L30.6005333,10.6526645 L28.8733867,10.6526645 L28.8733867,0.181500182 L30.6193067,0.181500182 L37.7531733,8.09770041 L37.79072,8.08373885 L37.7531733,6.96681466 L37.7531733,0.181500182 L39.4615466,0.181500182 L39.4615466,10.6526645 L38.0910933,10.6526645 Z M56.8081066,5.37519768 C56.8081066,6.32458799 56.6829523,7.13434994 56.43264,7.8045078 C56.1823276,8.47466567 55.8099936,9.02148767 55.3156266,9.44499021 C54.8212597,9.86849276 54.1954882,10.1756438 53.4382933,10.3664527 C52.6810984,10.5572615 51.7956317,10.6526645 50.7818667,10.6526645 L45.9195733,10.6526645 L45.9195733,0.181500182 L50.74432,0.181500182 C51.8081475,0.181500182 52.7249028,0.279230071 53.4946133,0.474692782 C54.2643238,0.670155494 54.8932242,0.977306575 55.3813333,1.39615524 C55.8694424,1.81500391 56.229261,2.3525183 56.4608,3.00871455 C56.6923389,3.66491079 56.8081066,4.45373062 56.8081066,5.37519768 Z M54.79936,5.37519768 C54.79936,4.62127008 54.7211385,3.99766031 54.5646933,3.50434966 C54.4082481,3.01103901 54.1673261,2.61779255 53.84192,2.32459848 C53.5165139,2.03140441 53.097247,1.82431012 52.5841067,1.7033094 C52.0709663,1.58230867 51.4514525,1.52180921 50.7255467,1.52180921 L47.8344533,1.52180921 L47.8344533,9.32631702 L50.74432,9.32631702 C51.432679,9.32631702 52.0302908,9.26814447 52.5371733,9.15179761 C53.0440559,9.03545076 53.4664516,8.83068337 53.8043733,8.53748931 C54.142295,8.24429524 54.3926036,7.84174117 54.5553066,7.32981502 C54.7180097,6.81788887 54.79936,6.16635628 54.79936,5.37519768 Z M71.6014933,9.35424012 L71.5451733,10.6526645 L62.57152,10.6526645 L62.57152,0.181500182 L71.2260266,0.181500182 L71.2823466,1.49388611 L64.4864,1.49388611 L64.4864,4.6073123 L70.3061333,4.6073123 L70.3061333,5.80800581 L64.4864,5.80800581 L64.4864,9.35424012 L71.6014933,9.35424012 Z M86.3761066,3.1692724 C86.3761066,3.97904649 86.1414423,4.62127148 85.6721066,5.09596663 C85.202771,5.57066179 84.5175512,5.86385146 83.6164267,5.97554444 L87.296,10.6526645 L85.0056533,10.6526645 L81.83296,6.24081393 L78.9981867,6.24081393 L78.9981867,10.6526645 L77.0833067,10.6526645 L77.0833067,0.181500182 L81.8517333,0.181500182 C83.40367,0.181500182 84.545703,0.425824906 85.2778667,0.914481684 C86.0100303,1.40313846 86.3761066,2.15472785 86.3761066,3.1692724 Z M84.3861333,3.22511861 C84.3861333,2.56426849 84.1858864,2.09888806 83.7853867,1.82896337 C83.3848869,1.55903867 82.7403422,1.42407835 81.8517333,1.42407835 L78.9981867,1.42407835 L78.9981867,5.10992819 L81.77664,5.10992819 C82.6777645,5.10992819 83.3379534,4.96798716 83.7572267,4.68410084 C84.1764999,4.40021452 84.3861333,3.91389197 84.3861333,3.22511861 Z M100.737707,0.181500182 L103.309653,8.15354662 L103.647573,9.25650926 L103.703893,9.25650926 L103.985493,8.15354662 L106.294613,0.181500182 L108.209493,0.181500182 L104.81152,10.6526645 L102.464853,10.6526645 L99.968,2.68061807 L99.6676267,1.56369387 L99.6113067,1.56369387 L99.29216,2.68061807 L96.81408,10.6526645 L94.4674133,10.6526645 L91.0506667,0.181500182 L93.0594133,0.181500182 L95.3685333,8.19543127 L95.6689067,9.29839391 L95.7252267,9.29839391 L96.0443733,8.19543127 L98.5975467,0.181500182 L100.737707,0.181500182 Z M122.7776,9.35424012 L122.72128,10.6526645 L113.747627,10.6526645 L113.747627,0.181500182 L122.402133,0.181500182 L122.458453,1.49388611 L115.662507,1.49388611 L115.662507,4.6073123 L121.48224,4.6073123 L121.48224,5.80800581 L115.662507,5.80800581 L115.662507,9.35424012 L122.7776,9.35424012 Z M137.552213,3.1692724 C137.552213,3.97904649 137.317549,4.62127148 136.848213,5.09596663 C136.378878,5.57066179 135.693658,5.86385146 134.792533,5.97554444 L138.472107,10.6526645 L136.18176,10.6526645 L133.009067,6.24081393 L130.174293,6.24081393 L130.174293,10.6526645 L128.259413,10.6526645 L128.259413,0.181500182 L133.02784,0.181500182 C134.579777,0.181500182 135.72181,0.425824906 136.453973,0.914481684 C137.186137,1.40313846 137.552213,2.15472785 137.552213,3.1692724 Z M135.56224,3.22511861 C135.56224,2.56426849 135.361993,2.09888806 134.961493,1.82896337 C134.560994,1.55903867 133.916449,1.42407835 133.02784,1.42407835 L130.174293,1.42407835 L130.174293,5.10992819 L132.952747,5.10992819 C133.853871,5.10992819 134.51406,4.96798716 134.933333,4.68410084 C135.352607,4.40021452 135.56224,3.91389197 135.56224,3.22511861 Z M148.23424,1.52180921 L148.23424,10.6526645 L146.281813,10.6526645 L146.281813,1.52180921 L142.09536,1.52180921 L142.15168,0.181500182 L152.383147,0.181500182 L152.420693,1.52180921 L148.23424,1.52180921 Z M157.602133,0.181500182 L159.573333,0.181500182 L159.573333,10.6526645 L157.602133,10.6526645 L157.602133,0.181500182 Z M176,10.2477795 C175.48686,10.4339344 174.870475,10.5805293 174.150827,10.6875684 C173.431179,10.7946075 172.683382,10.8481262 171.907413,10.8481262 C170.793523,10.8481262 169.836093,10.7410887 169.035093,10.5270105 C168.234094,10.3129323 167.577034,9.98716602 167.063893,9.54970186 C166.550753,9.11223769 166.172161,8.55378118 165.928107,7.87431557 C165.684052,7.19484995 165.562027,6.38508801 165.562027,5.44500545 C165.562027,3.54622482 166.075159,2.16404495 167.10144,1.29842438 C168.127721,0.432803797 169.748469,0 171.963733,0 C172.627061,0 173.290379,0.0465380427 173.953707,0.139615524 C174.617034,0.232693006 175.199002,0.358345721 175.699627,0.51657744 L175.474347,1.80104026 C174.986238,1.64280854 174.454332,1.52180963 173.878613,1.4380399 C173.302895,1.35427017 172.695897,1.31238593 172.0576,1.31238593 C171.269116,1.31238593 170.593283,1.37753919 170.03008,1.50784766 C169.466877,1.63815614 169.003806,1.86153874 168.640853,2.17800218 C168.2779,2.49446562 168.011948,2.9179618 167.842987,3.44850345 C167.674026,3.97904509 167.589547,4.6398853 167.589547,5.43104389 C167.589547,6.20358699 167.667768,6.84813888 167.824213,7.3647189 C167.980659,7.88129893 168.227838,8.30014131 168.56576,8.62125862 C168.903682,8.94237593 169.341722,9.17041234 169.879893,9.30537469 C170.418065,9.44033704 171.075125,9.5078172 171.851093,9.5078172 C172.777249,9.5078172 173.590752,9.41008731 174.291627,9.2146246 L174.291627,5.10992819 L176,5.10992819 L176,10.2477795 Z" id="MINDERWERTIG"></path>
                </g>
            </g>
            <g id="Group" transform="translate(48.000000, 0.000000)">
                <rect id="Rectangle-18" opacity="0.35303442" x="52.0879121" y="0" width="9.54945055" height="65.9638554" rx="4.77472527"></rect>
                <path d="M6.5,11.4337349 L9.54945055,11.4337349 L9.54945055,61.1891301 C9.54945055,63.8261381 7.41173323,65.9638554 4.77472527,65.9638554 L4.77472527,65.9638554 C2.13771732,65.9638554 -5.04564353e-15,63.8261381 -8.8817842e-15,61.1891301 L0,17.9337349 C-4.39629938e-16,14.3438841 2.91014913,11.4337349 6.5,11.4337349 Z" id="Rectangle-18"></path>
                <rect id="Rectangle-18" opacity="0.353940217" x="17.3626374" y="11.4337349" width="9.54945055" height="61.5662651" rx="4.77472527"></rect>
                <rect id="Rectangle-18" x="17.3626374" y="0" width="9.54945055" height="27.2650602" rx="4.77472527"></rect>
                <path d="M34.7252747,11.4337349 L38.2747253,11.4337349 C41.5884338,11.4337349 44.2747253,14.1200264 44.2747253,17.4337349 L44.2747253,65.9638554 L40.7252747,65.9638554 C37.4115662,65.9638554 34.7252747,63.2775639 34.7252747,59.9638554 L34.7252747,11.4337349 Z" id="Rectangle-18"></path>
                <rect id="Rectangle-18" x="52.0879121" y="45.7349398" width="9.54945055" height="27.2650602" rx="4.77472527"></rect>
                <path d="M74.2252747,11.4337349 L74.2252747,11.4337349 C76.8622827,11.4337349 79,13.5714523 79,16.2084602 L79,59.4638554 C79,63.0537063 76.0898509,65.9638554 72.5,65.9638554 L69.4505495,65.9638554 L69.4505495,16.2084602 C69.4505495,13.5714523 71.5882668,11.4337349 74.2252747,11.4337349 Z" id="Rectangle-18"></path>
            </g>
        </g>
    </g>
</svg>